<?xml version="1.0" encoding="UTF-8"?>
<svg xmlns="http://www.w3.org/2000/svg" viewBox="0 0 1081 1110" width="1081" height="1110">
<path d="M0.17 591.06C0.17 567.97 0.17 544.89 0.17 521.81C1.65 518.12 0.95 512.64 1.15 508.5C1.56 499.84 2.25 491.13 3.24 482.52C6.9 450.69 11.29 418.43 20.08 387.55C31.96 345.83 46.33 304.91 67.18 266.69C105.95 195.6 160.31 135.17 228.04 90.54C317.13 31.84 422.58 5.41 528.5 3.88C584.92 3.06 643 7.65 697.47 23.03C799.39 51.82 891.02 105.21 958.42 188.1C1042.65 291.69 1078.15 424.62 1078.12 556.5C1078.09 692.88 1041 825.38 952.87 931.32C880.8 1017.95 779.97 1070.88 671.46 1095.89C625.91 1106.38 578.14 1109.37 531.5 1108.98C423.62 1108.05 314.72 1080.86 224.63 1019.94C140.44 963 79.41 884.94 41.7 790.76C32.81 768.56 24.85 745.58 19.34 722.29C12.87 694.95 7.26 667.45 4.27 639.49C3.13 628.83 2.08 618.19 1.34 607.5C0.97 602.21 1.7 596.06 0.17 591.06ZM509.78 184.44C482.31 187.14 454.98 190.74 428.54 199.05C372.11 216.79 319.92 248.58 281.1 293.64C212.62 373.12 186.34 482.27 193.79 585.5C194.92 601.24 195.94 616.84 198.2 632.47C207.35 695.58 232.13 758.3 272.12 808.33C312.71 859.1 367.28 893.79 428.74 913.71C474.27 928.47 527.03 932.02 574.5 927.81C672.36 919.13 756.19 875.85 814.86 796.32C860.24 734.81 880.55 657.87 884.25 582.5C889.98 465.87 858.35 344.02 767.88 264.62C749.76 248.72 729.93 235.24 708.84 223.65C685.59 210.88 660.32 201.07 634.54 194.87C594.94 185.35 550.48 180.44 509.78 184.44ZM516.78 275.46C551.44 272.03 589.18 276.78 622.67 285.74C680.35 301.18 731.51 336.94 765.42 386.12C799.52 435.59 813.48 496.09 813.48 555.5C813.48 615.87 799.74 676.37 765.32 726.78C724.24 786.94 657.18 825.02 585.49 834.84C541.1 840.92 493.61 838.97 450.59 825.84C403.41 811.44 359.52 784.89 327.7 746.79C291.92 703.95 273.05 651.33 266.11 596.49C265.02 587.89 265.07 579.19 264.61 570.53C260.96 500.33 279.08 428.14 322.65 372.17C356.6 328.56 406.54 298.06 459.75 284.34C478.52 279.5 497.56 277.36 516.78 275.46ZM533.59 376.4C489.3 378.13 445.36 394.03 415.67 428.17C386.43 461.81 375.66 499.83 372.78 543.5C368.04 615.09 396.05 687.59 463.3 720.24C491.31 733.84 522.68 737.59 553.5 735.91C570.34 735 587.92 731.52 603.54 725.06C630.89 713.73 654.36 696.4 671.93 672.36C694.81 641.04 703.86 602.62 705.23 564.5C707.34 505.67 688.7 444.1 639.82 407.67C628.35 399.12 615.66 392.39 602.38 387.14C580.97 378.67 556.52 375.5 533.59 376.4ZM546.72 421.41C591.82 415.54 636.56 445.07 656.08 484.4C665.91 504.2 670.82 532.15 651.44 547.96C647.02 551.56 641.98 553.61 636.55 555.14C632.34 556.32 627.85 556.52 623.5 556.3C608.45 555.55 596.75 545.18 590.64 531.84C584.93 519.38 584.71 511.3 571.79 503.67C563.51 498.77 555.63 500.81 546.5 499.88C535.11 498.71 524.43 493.16 517.6 483.86C498.96 458.51 517.17 425.25 546.72 421.41Z" fill="#ce7436" fill-rule="evenodd" stroke="#ce7436" stroke-width="0.25" stroke-linejoin="round"/>
</svg>