<?xml version="1.0" encoding="UTF-8"?>
<svg xmlns="http://www.w3.org/2000/svg" viewBox="0 0 1139 1053" width="1139" height="1053">
<path d="M0.17 2.13C48.61 2.22 97.06 2.31 145.5 2.39C145.5 23.85 145.5 45.31 145.5 66.76C120.56 67.01 95.63 67.25 70.69 67.5C70.8 101.5 70.91 135.5 71.02 169.5C95.85 169.74 120.67 169.97 145.5 170.21C145.5 191.68 145.5 213.16 145.5 234.64C120.52 234.92 95.54 235.21 70.56 235.5C70.37 291.17 70.18 346.83 69.99 402.5C46.72 402.35 23.44 402.2 0.17 402.05C0.17 268.74 0.17 135.44 0.17 2.13ZM337.6 2.43C404.32 -2.28 471.87 21.17 513.41 75.11C539.71 109.26 551.91 152.92 553.26 195.5C554.92 247.57 543.03 300.08 509.89 341.34C478.61 380.27 430.69 403.5 381.48 408.72C345.35 412.55 306.15 409.42 272.44 395.12C240.31 381.48 212.57 360.83 192.1 332.35C169.06 300.28 158.41 261.46 155.8 222.5C152.3 170.3 164.1 115.88 196.39 73.86C230.22 29.83 283.04 6.29 337.6 2.43ZM559.17 1.98C617.68 1.98 676.19 1.98 734.7 1.98C734.7 23.68 734.7 45.38 734.7 67.07C717.17 67.07 699.64 67.07 682.12 67.07C682.12 178.96 682.12 290.84 682.12 402.72C658.7 402.72 635.29 402.72 611.87 402.72C611.87 290.84 611.87 178.96 611.87 67.08C594.3 67.08 576.73 67.08 559.17 67.08C559.17 45.38 559.17 23.68 559.17 1.98ZM1138.83 196.88C1138.83 202.96 1138.83 209.04 1138.83 215.11C1137 221.55 1137.61 229.7 1137.02 236.5C1136.14 246.51 1134.14 256.6 1131.73 266.35C1121.07 309.38 1096.12 348.57 1059.77 374.31C981.27 429.89 854.34 421.54 789.6 347.87C756.27 309.93 741.8 261.33 740.39 211.49C739.04 163.33 751.31 113.91 780.55 75.07C841.39 -5.74 968.56 -20.08 1052 32.49C1092.37 57.93 1120.41 99.51 1131.75 145.63C1134.14 155.39 1136.15 165.49 1137.02 175.5C1137.61 182.28 1136.99 190.46 1138.83 196.88ZM353.68 68.46C316.38 68.74 279.81 83.05 256.12 112.67C204.41 177.32 219.52 300.47 301.87 333.58C319.97 340.85 338.99 343.93 358.5 343.4C396.41 342.37 431.63 326.82 454.92 296.36C474.19 271.16 482.02 238.77 482.11 207.5C482.25 154.08 459.73 99.54 407.18 78.38C390.07 71.49 372.13 68.32 353.68 68.46ZM938.7 68.46C899.95 68.77 862.01 84.35 838.62 116.14C819.57 142.02 811.9 173.72 811.89 205.5C811.88 259.35 834.86 312.8 887.64 333.82C905.5 340.93 924.28 343.92 943.5 343.4C983.46 342.33 1020.3 325.04 1043.34 291.8C1059.58 268.37 1066.36 239.65 1067.11 211.5C1068.56 156.89 1046.15 99.92 992.22 78.34C975.09 71.48 957.16 68.31 938.7 68.46ZM930.63 102.41C965.65 99.45 1001.85 112.8 1022.48 142.03C1047.88 178.01 1047.82 233.98 1022.48 269.96C1007.34 291.45 982.54 305.7 956.5 308.79C923.43 312.72 887.97 305.1 864.61 279.87C828.65 241.01 828.61 171.77 864.13 132.64C881.27 113.76 905.71 104.51 930.63 102.41ZM928.74 140.4C891.08 146.11 873.54 182.13 878.79 217.53C880.76 230.78 885.18 243.14 894.11 253.36C909.2 270.64 933.7 275.05 955.38 270.7C1001.13 261.52 1013.3 198.86 989.33 164.2C975.82 144.66 951.73 136.91 928.74 140.4ZM941.64 156.31C958.51 153.37 975.72 164.9 982.87 179.6C986.38 186.84 988.29 196.9 981.27 202.76C979.75 204.02 977.84 204.92 975.94 205.46C974.17 205.97 972.35 206.15 970.5 206.01C957.6 205.04 960.27 191.64 951.78 186.68C944.79 182.6 937.69 187.75 931.48 179.01C925.1 170.04 931.39 158.1 941.64 156.31ZM0.17 574.16C0.17 544.45 0.17 514.73 0.17 485.01C80.96 484.84 161.74 484.67 242.53 484.5C245.06 493.11 243.42 506.23 243.42 515.5C243.42 527.83 243.42 540.17 243.42 552.5C243.42 559.8 243.81 567.24 243.14 574.5C218.93 574.83 194.73 575.17 170.52 575.5C170.44 730.17 170.37 884.83 170.29 1039.5C138.03 1039.52 105.76 1039.54 73.5 1039.56C73.41 884.87 73.33 730.19 73.24 575.5C48.88 575.05 24.52 574.61 0.17 574.16ZM489.94 484.76C489.94 514.79 489.94 544.82 489.94 574.85C455.24 574.85 420.54 574.85 385.84 574.85C385.84 622.22 385.84 669.58 385.84 716.95C420.54 716.95 455.24 716.95 489.94 716.95C489.94 747.08 489.94 777.22 489.94 807.35C455.25 807.35 420.55 807.35 385.85 807.35C385.85 854.79 385.85 902.23 385.85 949.67C420.55 949.67 455.24 949.67 489.94 949.67C489.94 979.74 489.94 1009.81 489.94 1039.88C422.76 1039.88 355.59 1039.88 288.41 1039.88C288.41 855.03 288.41 670.18 288.41 485.32C293.85 483.21 301.59 484.48 307.5 484.48C321.5 484.48 335.5 484.48 349.5 484.48C380.5 484.48 411.5 484.48 442.5 484.48C457.7 484.48 475.01 483.1 489.94 484.76ZM1138.83 958.12C1138.83 985.77 1138.83 1013.43 1138.83 1041.08C1133.14 1043.66 1112.98 1044.45 1105.55 1045.31C1074.42 1048.94 1042.84 1050.69 1011.5 1051C921.44 1051.91 827.86 1039.17 754.16 983.37C732.74 967.14 713.63 947.48 697.11 926.33C677.29 900.95 660.68 873.01 646.19 844.31C641.81 835.62 637.5 826.8 633.57 817.9C630.96 812 628.68 805.77 625.5 800.16C625.21 880.61 624.92 961.05 624.64 1041.5C591.54 1041.5 558.45 1041.5 525.36 1041.5C525.4 855.83 525.44 670.17 525.48 484.5C558.49 484.5 591.51 484.5 624.52 484.5C624.85 561.32 625.17 638.13 625.5 714.95C633.77 714.53 642.88 712.24 650.57 709.11C662.22 704.37 672.85 698.27 681.76 689.26C711.58 659.11 718.96 602.96 720.98 562.5C721.57 550.78 721.97 539.05 722.57 527.34C723.29 513.46 721.44 498.17 723.5 484.6C756.51 484.57 789.52 484.53 822.53 484.5C824.93 492.65 823.24 502.94 823.09 511.5C822.78 530.18 821.97 548.9 820.23 567.5C814.81 625.66 803.32 693.86 761.58 738.08C751.78 748.46 740.8 757.77 728.44 764.98C723.23 768.01 717.68 770.41 712.52 773.5C715.21 781.18 719.79 788.63 723.76 795.73C731.84 810.19 740.11 824.41 749.39 838.14C766.62 863.62 786.76 887.36 810.72 906.78C866.14 951.7 936.78 965.4 1006.5 966.69C1036.13 967.24 1065.96 965.4 1095.45 962.63C1109.87 961.28 1124.36 958.64 1138.83 958.12ZM1042.5 484.49C1068.04 630.34 1093.59 776.2 1119.13 922.05C1093.59 922.05 1068.04 922.05 1042.5 922.05C1038.12 895.67 1033.73 869.28 1029.35 842.89C1003.73 842.89 978.12 842.89 952.5 842.89C948.09 869.28 943.68 895.66 939.27 922.05C913.74 922.05 888.21 922.05 862.68 922.05C888.28 776.2 913.89 630.34 939.5 484.49C973.83 484.49 1008.17 484.49 1042.5 484.49ZM991.5 607.11C989.18 610.02 989.36 615.56 988.7 619.4C986.98 629.39 985.64 639.48 983.79 649.45C979.22 674.01 975.9 698.81 971.76 723.45C970.08 733.44 968.6 743.49 966.83 753.47C965.77 759.4 964.18 765.59 964.48 771.6C982.15 771.6 999.83 771.6 1017.5 771.6C1008.83 716.77 1000.17 661.94 991.5 607.11Z" fill="#ac3d23" fill-rule="evenodd" stroke="#ac3d23" stroke-width="0.25" stroke-linejoin="round"/>
</svg>