<?xml version="1.0" encoding="UTF-8"?>
<svg xmlns="http://www.w3.org/2000/svg" viewBox="0 0 1141 1052" width="1141" height="1052">
<path d="M3.05 2.76C51.43 2.76 99.82 2.76 148.21 2.76C148.21 24.51 148.21 46.25 148.21 68C123.22 68 98.23 68 73.24 68C73.24 102.07 73.24 136.14 73.24 170.2C98.23 170.2 123.22 170.2 148.21 170.2C148.21 192 148.21 213.79 148.21 235.58C123.21 235.58 98.22 235.58 73.23 235.58C73.23 291.41 73.23 347.23 73.23 403.06C49.84 403.06 26.44 403.06 3.05 403.06C3.05 269.63 3.05 136.19 3.05 2.76ZM336.73 3.43C363.77 0.58 391.57 3.99 417.76 10.64C430.9 13.98 443.76 19.46 455.73 25.77C534.51 67.23 564.76 155.52 553.23 240.52C549 271.71 539.22 302.6 521.36 328.81C487.63 378.3 435.38 404.38 376.5 409.8C348.04 412.42 316.78 410 289.6 400.83C254.69 389.05 223.17 369.52 200.18 340.29C142.39 266.81 143.2 143.19 202.06 70.57C236.11 28.54 284.07 8.97 336.73 3.43ZM560.99 2.76C619.36 2.76 677.73 2.76 736.1 2.76C736.1 24.51 736.1 46.26 736.1 68C718.68 68 701.27 68 683.85 68C683.85 179.69 683.85 291.37 683.85 403.06C660.46 403.06 637.07 403.06 613.68 403.06C613.68 291.37 613.68 179.68 613.68 68C596.12 68 578.55 68 560.99 68C560.99 46.25 560.99 24.51 560.99 2.76ZM920.75 3.44C947.86 0.63 980.57 3.3 1006.51 11.98C1043.71 24.44 1076.7 45.41 1100.39 77.16C1126.73 112.48 1137.98 156.01 1139.3 199.5C1141.6 274.88 1111.63 347.53 1043.83 385.37C1020.98 398.12 995.43 405.82 969.5 408.83C934.54 412.89 897.82 410.04 864.66 397.8C829.89 384.95 799.86 362.37 778.26 332.25C756.41 301.8 745.58 264.5 742.75 227.5C738.51 172.11 750.5 115.21 785.61 71.14C819.25 28.92 868.26 8.87 920.75 3.44ZM345.69 69.44C308.49 72.52 274.67 89.74 253.1 120.65C238.75 141.2 232.05 165.85 229.82 190.5C224.41 250.27 248.41 314.09 308.59 335.86C327.66 342.75 348.28 345.31 368.5 343.73C385 342.44 401.49 338.26 416.32 330.82C490.3 293.7 503.49 184.5 459.55 119.94C444.78 98.24 422.95 83.6 398.41 75.15C381.97 69.49 362.94 68.02 345.69 69.44ZM929.76 69.46C898.94 72.13 869.75 83.99 848.31 106.8C803.76 154.18 801.21 245.86 840.46 297.05C855.4 316.54 875.43 330.04 898.61 337.82C915.65 343.54 934.63 345.15 952.5 343.73C983.43 341.27 1012.81 328.42 1033.95 305.43C1057.23 280.12 1067.45 245.3 1068.14 211.5C1069.37 150.64 1042.23 93.31 980.8 74.62C964.58 69.68 946.64 68 929.76 69.46ZM926.81 103.45C942.43 101.51 959.07 102.91 974.15 107.42C1023.43 122.13 1047.21 171.51 1041.25 220.52C1039.22 237.24 1034.68 253.57 1025.33 267.79C1009.41 292.02 982.98 306.45 954.48 309.8C938.88 311.63 921.77 310.47 906.78 305.65C886.63 299.18 869.17 286.76 857.08 269.36C830.14 230.6 833.73 168.81 865.11 133.63C880.84 115.99 903.72 106.3 926.81 103.45ZM934.69 140.43C919.25 141.81 904.09 148.51 894.12 160.67C867.67 192.96 875.82 253.57 917.51 268.98C927.03 272.5 937.4 273.65 947.49 272.73C965.42 271.11 982.12 261.61 991.76 246.26C1012.02 214.01 1003.55 158.12 964.24 144.32C954.74 140.99 944.76 139.52 934.69 140.43ZM940.77 157.35C957.14 152.86 974.63 164.26 982.73 177.75C986.96 184.79 989.82 196.16 983.13 202.62C981.52 204.18 979.63 205.38 977.47 206C975.88 206.47 974.15 206.71 972.5 206.68C959.29 206.5 961.77 194.06 954.27 188.25C949.29 184.39 942.93 187.01 937.52 184C926.47 177.86 928.47 160.73 940.77 157.35ZM3.06 484.92C84.01 484.92 164.97 484.92 245.93 484.92C245.93 514.95 245.93 544.98 245.93 575.01C221.65 575.01 197.36 575.01 173.07 575.01C173.07 729.94 173.07 884.88 173.07 1039.82C140.71 1039.82 108.35 1039.82 75.99 1039.82C75.99 884.88 75.99 729.94 75.99 575C51.68 575 27.37 575 3.06 575C3.06 544.97 3.06 514.95 3.06 484.92ZM491.98 484.92C491.98 514.95 491.98 544.98 491.98 575.01C457.35 575.01 422.71 575.01 388.08 575.01C388.08 622.35 388.08 669.7 388.08 717.04C422.71 717.04 457.35 717.04 491.98 717.04C491.98 747.17 491.98 777.3 491.98 807.43C457.35 807.43 422.71 807.43 388.08 807.43C388.08 854.78 388.08 902.13 388.08 949.48C422.72 949.48 457.35 949.48 491.99 949.48C491.99 979.59 491.99 1009.71 491.99 1039.83C424.92 1039.83 357.86 1039.83 290.8 1039.83C290.8 854.86 290.8 669.89 290.8 484.92C357.86 484.92 424.92 484.92 491.98 484.92ZM626.96 484.94C626.96 561.67 626.96 638.4 626.96 715.13C635.33 714.6 643.96 712.33 651.79 709.34C710.35 686.97 718.12 619 722.33 564.52C723.22 552.88 723.78 541.17 723.98 529.5C724.23 514.63 724.72 499.8 724.72 484.93C757.98 484.93 791.24 484.93 824.5 484.93C826.23 494.95 824.89 506.35 824.38 516.53C823.65 531.2 823.15 545.84 822.18 560.5C818.2 620.66 805.48 692.61 762.92 738.39C753.2 748.84 742 757.96 729.72 765.23C724.63 768.25 719.18 770.56 714.06 773.5C716.42 780.82 720.96 788.03 724.73 794.75C731.55 806.87 738.26 819.01 745.92 830.62C762.26 855.39 780.45 879.01 802.73 898.78C853.09 943.48 918.21 962.42 984.5 965.82C1020.59 967.66 1056.54 965.61 1092.5 962.82C1102.52 962.04 1112.52 960.91 1122.49 959.77C1128.02 959.14 1133.84 957.8 1139.32 958.5C1139.98 976.46 1139.43 994.53 1139.43 1012.5C1139.43 1021.68 1141.02 1032.72 1138.6 1041.5C1102.9 1046.66 1066.55 1049.1 1030.5 1050.31C950.15 1053 863.36 1046.93 791.76 1006.73C762.76 990.44 737.58 969.86 714.93 945.57C689.6 918.4 669.58 885.87 652.42 853.1C646.76 842.31 641.34 831.32 636.3 820.22C633.44 813.95 631.27 806.18 626.96 800.9C626.96 881.05 626.96 961.2 626.96 1041.34C593.59 1041.34 560.22 1041.34 526.85 1041.34C526.85 855.87 526.85 670.41 526.85 484.94C560.22 484.94 593.59 484.94 626.96 484.94ZM940.5 484.93C974.83 484.93 1009.17 484.93 1043.5 484.93C1068.98 630.62 1094.46 776.31 1119.94 922.01C1094.46 922.01 1068.98 922.01 1043.5 922.01C1039.16 895.64 1034.82 869.27 1030.48 842.9C1004.82 842.9 979.16 842.9 953.5 842.9C949.1 869.27 944.7 895.64 940.3 922C914.83 922 889.36 922 863.89 922C889.42 776.31 914.96 630.62 940.5 484.93ZM1018.5 771.68C1009.81 716.62 1001.12 661.56 992.43 606.5C983.41 661.56 974.38 716.62 965.36 771.68C983.07 771.68 1000.79 771.68 1018.5 771.68Z" fill="#f9ead4" fill-rule="evenodd" stroke="#f9ead4" stroke-width="0.25" stroke-linejoin="round"/>
</svg>