<?xml version="1.0" encoding="UTF-8"?>
<svg xmlns="http://www.w3.org/2000/svg" viewBox="0 0 1142 1051" width="1142" height="1051">
<path d="M1.99 0.17C50.36 0.17 98.72 0.17 147.08 0.17C147.11 21.61 147.15 43.06 147.18 64.5C122.28 64.82 97.39 65.15 72.5 65.47C72.5 99.5 72.5 133.53 72.5 167.56C97.42 167.87 122.33 168.19 147.25 168.5C147.17 189.83 147.09 211.17 147 232.5C122.17 232.74 97.33 232.98 72.5 233.22C72.2 288.98 71.89 344.74 71.59 400.5C48.56 400.45 25.53 400.41 2.5 400.36C2.33 266.97 2.16 133.57 1.99 0.17ZM341.05 0.17C351.01 0.17 360.97 0.17 370.93 0.17C376.1 1.88 382.92 1.51 388.5 2.12C398.45 3.21 408.77 5.26 418.35 8.22C462.73 21.92 502.17 48.99 525.94 89.6C576.88 176.61 562.88 307.55 479.4 369.94C443.34 396.89 398.06 408.44 353.5 408C302.1 407.48 249.95 390.41 213.17 353.33C171.59 311.42 156.03 255.42 156.93 197.5C157.54 158.58 167.11 118.06 188.66 85.19C213.72 46.96 250.22 21.65 293.64 8.2C302.91 5.33 312.87 3.37 322.5 2.22C328.39 1.51 335.56 1.96 341.05 0.17ZM560.93 0.17C619.31 0.17 677.69 0.17 736.07 0.17C736.08 21.61 736.1 43.06 736.11 64.5C718.72 64.83 701.32 65.17 683.93 65.5C683.79 176.88 683.64 288.25 683.5 399.63C678.13 402.06 669.52 400.57 663.5 400.57C652.5 400.57 641.5 400.57 630.5 400.57C625.06 400.57 618.69 401.44 613.5 399.99C613.32 288.49 613.15 177 612.97 65.5C595.61 65.17 578.24 64.83 560.88 64.5C560.89 43.06 560.91 21.61 560.93 0.17ZM926.06 0.17C936.01 0.17 945.96 0.17 955.9 0.17C961.43 1.94 968.57 1.52 974.5 2.23C984.11 3.39 994.08 5.35 1003.34 8.22C1047.35 21.88 1085.34 48.11 1109.82 87.69C1144.82 144.29 1149.03 223.37 1126.71 285.28C1116.19 314.47 1098.34 341.07 1074.95 361.47C1037.45 394.18 987.64 408.49 938.5 408C886.27 407.47 834.44 389.85 797.15 352.34C750.63 305.54 735.66 235.37 743.83 171.5C747.57 142.29 756.08 112.67 772.11 87.65C797.78 47.58 833.33 22.17 878.63 8.2C887.91 5.34 897.87 3.38 907.5 2.23C913.41 1.52 920.54 1.94 926.06 0.17ZM351.63 66.44C314.7 67.76 278.97 82.9 256.18 112.7C238.54 135.78 230.48 163.81 228.62 192.47C224.88 249.98 248.24 310.23 305.24 332.31C323.01 339.2 341.96 342.09 361 341.49C399.49 340.28 435.63 323.36 458.32 291.78C473.89 270.12 481.26 243.83 483.21 217.5C487.6 158.1 463.07 95.51 403.28 74.28C386.89 68.46 369.01 65.83 351.63 66.44ZM935.8 66.48C897.52 68.35 861.26 84.34 838.61 116.13C791.32 182.49 808.51 301.95 890.91 332.55C908.57 339.11 927 342.08 945.85 341.48C983.99 340.28 1020.34 323.74 1042.93 292.36C1058.65 270.51 1066.31 244.1 1068.27 217.5C1072.79 156.09 1046.64 93.23 984.47 73.05C968.99 68.02 952.08 65.68 935.8 66.48ZM931.57 100.35C944.51 98.96 959.01 100.34 971.53 103.93C993.54 110.25 1012.4 123.23 1025.34 142.2C1034.12 155.05 1038.85 170.25 1041.1 185.5C1047.23 227.01 1032.86 272.75 994.86 294.38C983.68 300.75 971.2 304.96 958.47 306.79C941.78 309.2 925.03 307.81 908.78 303.61C859.39 290.86 836.73 242.13 839.85 194.5C841.04 176.41 846.01 157.92 856.22 142.72C874.05 116.16 900.37 103.72 931.57 100.35ZM930.6 138.29C915.92 140.66 902.28 147.75 893.06 159.61C868.72 190.94 876.18 247.2 913.71 264.79C925.5 270.32 939.54 271.57 952.32 269.64C1017.41 259.8 1020.06 152.84 956.39 139.27C948.05 137.49 939.05 136.92 930.6 138.29ZM942.66 154.29C958.87 151.06 977.58 162.72 984.25 177.3C987.67 184.79 989.83 195.01 982.46 200.97C980.88 202.25 979.09 203.09 977.1 203.54C975.26 203.95 973.38 204.08 971.5 203.92C959.53 202.87 961.16 189 952.3 184.18C945.53 180.49 939.43 185.75 933.15 177.33C926.64 168.61 932.26 156.37 942.66 154.29ZM245.06 482.35C245.06 512.44 245.06 542.54 245.06 572.63C220.73 572.63 196.4 572.63 172.07 572.63C172.07 727.61 172.07 882.58 172.07 1037.56C139.66 1037.56 107.25 1037.56 74.84 1037.56C74.84 882.58 74.84 727.61 74.84 572.64C50.55 572.64 26.27 572.64 1.99 572.64C1.99 542.54 1.99 512.44 1.99 482.35C83.01 482.35 164.04 482.35 245.06 482.35ZM491.42 482.35C491.42 512.4 491.42 542.45 491.42 572.5C467.87 573.58 444.07 572.63 420.5 572.63C410.85 572.63 396.38 571.11 387.44 573.43C387.44 620.55 387.44 667.68 387.44 714.8C422.11 714.8 456.77 714.8 491.44 714.8C491.44 744.92 491.44 775.03 491.44 805.14C456.77 805.14 422.11 805.14 387.44 805.14C387.44 852.52 387.44 899.91 387.44 947.29C421.92 947.29 456.4 947.29 490.88 947.29C492.02 953.84 491.44 960.83 491.44 967.5C491.44 979.83 491.44 992.17 491.44 1004.5C491.44 1014.09 492.99 1028.73 490.61 1037.56C423.76 1037.56 356.91 1037.56 290.06 1037.56C290.06 852.49 290.06 667.42 290.06 482.35C357.18 482.35 424.3 482.35 491.42 482.35ZM626.89 482.35C626.89 559.23 626.89 636.12 626.89 713C636.62 711.86 646.12 709.23 655.26 705.71C707.25 685.71 716.48 621.65 721.29 573.52C722.55 560.89 723.42 548.19 723.8 535.5C724.11 525.15 724.37 514.79 724.5 504.44C724.6 497.19 723.83 489.42 725.25 482.35C758.33 482.35 791.42 482.35 824.5 482.35C825.57 489.9 824.92 497.86 824.78 505.5C824.49 522.87 823.68 540.2 822.21 557.5C817.17 616.65 807.91 681.85 768.87 729.32C759.51 740.69 748.46 750.54 736.29 758.8C729.2 763.61 720.72 766.54 713.87 771.5C745.69 840.46 798.62 910.25 870.79 939.65C907.87 954.75 946.73 961.02 986.5 963.77C1025 966.42 1064.16 963.32 1102.5 959.86C1115.01 958.74 1127.5 956.44 1140.05 955.95C1140.05 983.71 1140.05 1011.46 1140.05 1039.22C1131.63 1040.73 1123 1041.21 1114.5 1042.12C1094.19 1044.3 1073.88 1045.82 1053.5 1047.26C937.75 1055.46 805.07 1040.53 721.69 950.81C694.8 921.87 672.46 889.36 654.08 854.4C647.86 842.56 641.52 830.57 636.28 818.25C634.05 813 630.39 802.06 626.89 798.5C626.89 878.73 626.89 958.96 626.89 1039.19C593.4 1039.19 559.92 1039.19 526.44 1039.19C526.44 853.58 526.44 667.96 526.44 482.35C559.92 482.35 593.4 482.35 626.89 482.35ZM1043.51 482.35C1069.06 628.21 1094.61 774.06 1120.15 919.91C1094.78 919.91 1069.41 919.91 1044.04 919.91C1039.53 893.49 1035.01 867.06 1030.5 840.64C1005.17 840.64 979.83 840.64 954.5 840.64C950.91 847.24 951.1 857.07 949.88 864.49C946.85 882.89 944.55 901.72 940.5 919.92C915.04 919.92 889.59 919.92 864.13 919.92C889.59 774.06 915.04 628.21 940.5 482.35C974.84 482.35 1009.18 482.35 1043.51 482.35ZM992.5 604.38C983.5 659.38 974.5 714.38 965.5 769.38C983.17 769.38 1000.83 769.38 1018.5 769.38C1019.08 763.23 1017.24 756.58 1016.18 750.46C1014.03 738.17 1012.17 725.79 1010.26 713.46C1006.41 688.43 1002.21 663.46 998.21 638.46C996.41 627.22 995.69 615.33 992.5 604.38Z" fill="#ce7436" fill-rule="evenodd" stroke="#ce7436" stroke-width="0.25" stroke-linejoin="round"/>
</svg>